<?xml version="1.0" encoding="UTF-8" standalone="no"?>
<!DOCTYPE svg PUBLIC "-//W3C//DTD SVG 1.1//EN"
 "http://www.w3.org/Graphics/SVG/1.1/DTD/svg11.dtd">
<!-- Generated by graphviz version 2.26.3 (20100126.1600)
 -->
<!-- Title: model Pages: 1 -->
<svg width="371pt" height="302pt"
 viewBox="0.00 0.00 371.00 302.00" xmlns="http://www.w3.org/2000/svg" xmlns:xlink="http://www.w3.org/1999/xlink">
<g id="graph1" class="graph" transform="scale(1 1) rotate(0) translate(4 298)">
<title>model</title>
<polygon fill="white" stroke="white" points="-4,5 -4,-298 368,-298 368,5 -4,5"/>
<!-- Debian__Dpkg__Copyright__Content -->
<g id="node1" class="node"><title>Debian__Dpkg__Copyright__Content</title>
<polygon fill="none" stroke="black" points="252,-160 9.9476e-14,-160 0,-98 252,-98 252,-160"/>
<text text-anchor="middle" x="126" y="-143.4" font-family="Times Roman,serif" font-size="14.00">Debian::Dpkg::Copyright::Content</text>
<text text-anchor="middle" x="126" y="-125.4" font-family="Times Roman,serif" font-size="14.00">&#45; Copyright (list of leaf)</text>
<text text-anchor="middle" x="126" y="-107.4" font-family="Times Roman,serif" font-size="14.00">&#45; License (node)</text>
</g>
<!-- Debian__Dpkg__Copyright__License -->
<g id="node3" class="node"><title>Debian__Dpkg__Copyright__License</title>
<polygon fill="none" stroke="black" points="354,-44 108,-44 108,-2.13163e-14 354,-7.10543e-15 354,-44"/>
<text text-anchor="middle" x="231" y="-27.4" font-family="Times Roman,serif" font-size="14.00">Debian::Dpkg::Copyright::License</text>
<text text-anchor="middle" x="231" y="-9.4" font-family="Times Roman,serif" font-size="14.00">&#45; short_name (leaf)</text>
</g>
<!-- Debian__Dpkg__Copyright__Content&#45;&gt;Debian__Dpkg__Copyright__License -->
<g id="edge2" class="edge"><title>Debian__Dpkg__Copyright__Content&#45;&gt;Debian__Dpkg__Copyright__License</title>
<path fill="none" stroke="black" stroke-dasharray="5,2" d="M156.653,-97.7635C170.983,-83.1607 187.956,-65.8644 202.064,-51.4873"/>
<polygon fill="black" stroke="black" points="204.645,-53.8538 209.151,-44.2649 199.649,-48.951 204.645,-53.8538"/>
<text text-anchor="middle" x="216" y="-67.4" font-family="Times Roman,serif" font-size="14.00">License</text>
</g>
<!-- Debian__Dpkg__Copyright -->
<g id="node4" class="node"><title>Debian__Dpkg__Copyright</title>
<polygon fill="none" stroke="black" points="329,-294 143,-294 143,-214 329,-214 329,-294"/>
<text text-anchor="middle" x="236" y="-277.4" font-family="Times Roman,serif" font-size="14.00">Debian::Dpkg::Copyright</text>
<text text-anchor="middle" x="236" y="-259.4" font-family="Times Roman,serif" font-size="14.00">&#45; Upstream&#45;Name (leaf)</text>
<text text-anchor="middle" x="236" y="-241.4" font-family="Times Roman,serif" font-size="14.00">&#45; Files (hash of node)</text>
<text text-anchor="middle" x="236" y="-223.4" font-family="Times Roman,serif" font-size="14.00">&#45; Global&#45;License (node)</text>
</g>
<!-- Debian__Dpkg__Copyright&#45;&gt;Debian__Dpkg__Copyright__Content -->
<g id="edge4" class="edge"><title>Debian__Dpkg__Copyright&#45;&gt;Debian__Dpkg__Copyright__Content</title>
<path fill="none" stroke="black" stroke-dasharray="5,2" d="M200.59,-213.761C187.66,-199.068 173.068,-182.486 160.242,-167.911"/>
<polygon fill="black" stroke="black" points="162.553,-165.239 153.319,-160.044 157.298,-169.864 162.553,-165.239"/>
<text text-anchor="middle" x="199.5" y="-183.4" font-family="Times Roman,serif" font-size="14.00">Files</text>
</g>
<!-- Debian__Dpkg__Copyright&#45;&gt;Debian__Dpkg__Copyright__License -->
<g id="edge6" class="edge"><title>Debian__Dpkg__Copyright&#45;&gt;Debian__Dpkg__Copyright__License</title>
<path fill="none" stroke="black" stroke-dasharray="5,2" d="M250.121,-213.81C259.363,-182.239 268.458,-137.206 261,-98 258.12,-82.8617 252.282,-66.8858 246.516,-53.5092"/>
<polygon fill="black" stroke="black" points="249.66,-51.9676 242.372,-44.2774 243.274,-54.8339 249.66,-51.9676"/>
<text text-anchor="middle" x="313" y="-125.4" font-family="Times Roman,serif" font-size="14.00">Global&#45;License</text>
</g>
</g>
</svg>
