<?xml version="1.0" encoding="UTF-8" standalone="no"?>
<!DOCTYPE svg PUBLIC "-//W3C//DTD SVG 1.1//EN"
 "http://www.w3.org/Graphics/SVG/1.1/DTD/svg11.dtd">
<!-- Generated by graphviz version 2.26.3 (20100126.1600)
 -->
<!-- Title: tree Pages: 1 -->
<svg width="260pt" height="268pt"
 viewBox="0.00 0.00 260.00 268.00" xmlns="http://www.w3.org/2000/svg" xmlns:xlink="http://www.w3.org/1999/xlink">
<g id="graph1" class="graph" transform="scale(1 1) rotate(0) translate(4 264)">
<title>tree</title>
<polygon fill="white" stroke="white" points="-4,5 -4,-264 257,-264 257,5 -4,5"/>
<!-- A1 -->
<g id="node2" class="node"><title>A1</title>
<ellipse fill="none" stroke="black" cx="63" cy="-167" rx="27" ry="18.3848"/>
<text text-anchor="middle" x="63" y="-163.4" font-family="Times Roman,serif" font-size="14.00">A1</text>
</g>
<!-- A2 -->
<g id="node6" class="node"><title>A2</title>
<ellipse fill="none" stroke="black" cx="63" cy="-93" rx="27" ry="18.3848"/>
<text text-anchor="middle" x="63" y="-89.4" font-family="Times Roman,serif" font-size="14.00">A2</text>
</g>
<!-- A1&#45;&gt;A2 -->
<g id="edge6" class="edge"><title>A1&#45;&gt;A2</title>
<path fill="none" stroke="black" d="M63,-148.327C63,-140.264 63,-130.648 63,-121.711"/>
<polygon fill="black" stroke="black" points="66.5001,-121.667 63,-111.667 59.5001,-121.667 66.5001,-121.667"/>
</g>
<!-- B1 -->
<g id="node3" class="node"><title>B1</title>
<ellipse fill="none" stroke="black" cx="135" cy="-167" rx="27" ry="18.3848"/>
<text text-anchor="middle" x="135" y="-163.4" font-family="Times Roman,serif" font-size="14.00">B1</text>
</g>
<!-- B2 -->
<g id="node7" class="node"><title>B2</title>
<ellipse fill="none" stroke="black" cx="135" cy="-93" rx="27" ry="18.3848"/>
<text text-anchor="middle" x="135" y="-89.4" font-family="Times Roman,serif" font-size="14.00">B2</text>
</g>
<!-- B1&#45;&gt;B2 -->
<g id="edge10" class="edge"><title>B1&#45;&gt;B2</title>
<path fill="none" stroke="black" d="M135,-148.327C135,-140.264 135,-130.648 135,-121.711"/>
<polygon fill="black" stroke="black" points="138.5,-121.667 135,-111.667 131.5,-121.667 138.5,-121.667"/>
</g>
<!-- C2 -->
<g id="node8" class="node"><title>C2</title>
<ellipse fill="none" stroke="black" cx="207" cy="-93" rx="27" ry="18.3848"/>
<text text-anchor="middle" x="207" y="-89.4" font-family="Times Roman,serif" font-size="14.00">C2</text>
</g>
<!-- B1&#45;&gt;C2 -->
<g id="edge14" class="edge"><title>B1&#45;&gt;C2</title>
<path fill="none" stroke="black" d="M150.269,-151.307C160.36,-140.935 173.747,-127.176 184.983,-115.628"/>
<polygon fill="black" stroke="black" points="187.535,-118.025 192,-108.417 182.517,-113.144 187.535,-118.025"/>
</g>
<!-- Meta -->
<g id="node4" class="node"><title>Meta</title>
<ellipse fill="none" stroke="black" cx="216" cy="-167" rx="36.0624" ry="18.3848"/>
<text text-anchor="middle" x="216" y="-163.4" font-family="Times Roman,serif" font-size="14.00">Meta</text>
</g>
<!-- A3 -->
<g id="node10" class="node"><title>A3</title>
<ellipse fill="none" stroke="black" cx="27" cy="-19" rx="27" ry="18.3848"/>
<text text-anchor="middle" x="27" y="-15.4" font-family="Times Roman,serif" font-size="14.00">A3</text>
</g>
<!-- A2&#45;&gt;A3 -->
<g id="edge7" class="edge"><title>A2&#45;&gt;A3</title>
<path fill="none" stroke="black" d="M54.2854,-75.0867C50.0403,-66.3607 44.8464,-55.6843 40.1337,-45.9971"/>
<polygon fill="black" stroke="black" points="43.1564,-44.2096 35.6343,-36.7484 36.8617,-47.2719 43.1564,-44.2096"/>
</g>
<!-- D3 -->
<g id="node12" class="node"><title>D3</title>
<ellipse fill="none" stroke="black" cx="99" cy="-19" rx="27" ry="18.3848"/>
<text text-anchor="middle" x="99" y="-15.4" font-family="Times Roman,serif" font-size="14.00">D3</text>
</g>
<!-- A2&#45;&gt;D3 -->
<g id="edge17" class="edge"><title>A2&#45;&gt;D3</title>
<path fill="none" stroke="black" d="M71.7146,-75.0867C75.9597,-66.3607 81.1536,-55.6843 85.8663,-45.9971"/>
<polygon fill="black" stroke="black" points="89.1383,-47.2719 90.3657,-36.7484 82.8436,-44.2096 89.1383,-47.2719"/>
</g>
<!-- C3 -->
<g id="node11" class="node"><title>C3</title>
<ellipse fill="none" stroke="black" cx="207" cy="-19" rx="27" ry="18.3848"/>
<text text-anchor="middle" x="207" y="-15.4" font-family="Times Roman,serif" font-size="14.00">C3</text>
</g>
<!-- C2&#45;&gt;C3 -->
<g id="edge15" class="edge"><title>C2&#45;&gt;C3</title>
<path fill="none" stroke="black" d="M207,-74.3267C207,-66.2639 207,-56.6477 207,-47.7115"/>
<polygon fill="black" stroke="black" points="210.5,-47.6673 207,-37.6674 203.5,-47.6674 210.5,-47.6673"/>
</g>
<!-- Root -->
<g id="node13" class="node"><title>Root</title>
<ellipse fill="none" stroke="black" cx="135" cy="-241" rx="33.9411" ry="18.3848"/>
<text text-anchor="middle" x="135" y="-237.4" font-family="Times Roman,serif" font-size="14.00">Root</text>
</g>
<!-- Root&#45;&gt;A1 -->
<g id="edge5" class="edge"><title>Root&#45;&gt;A1</title>
<path fill="none" stroke="black" d="M119.021,-224.577C109.124,-214.406 96.2683,-201.192 85.3683,-189.99"/>
<polygon fill="black" stroke="black" points="87.6772,-187.344 78.1951,-182.617 82.6601,-192.225 87.6772,-187.344"/>
</g>
<!-- Root&#45;&gt;B1 -->
<g id="edge9" class="edge"><title>Root&#45;&gt;B1</title>
<path fill="none" stroke="black" d="M135,-222.327C135,-214.264 135,-204.648 135,-195.711"/>
<polygon fill="black" stroke="black" points="138.5,-195.667 135,-185.667 131.5,-195.667 138.5,-195.667"/>
</g>
<!-- Root&#45;&gt;Meta -->
<g id="edge12" class="edge"><title>Root&#45;&gt;Meta</title>
<path fill="none" stroke="black" d="M152.576,-224.943C163.645,-214.831 178.12,-201.607 190.446,-190.345"/>
<polygon fill="black" stroke="black" points="193.157,-192.61 198.179,-183.281 188.435,-187.442 193.157,-192.61"/>
</g>
</g>
</svg>
