<?xml version="1.0" encoding="UTF-8" standalone="no"?>
<!DOCTYPE svg PUBLIC "-//W3C//DTD SVG 1.1//EN"
 "http://www.w3.org/Graphics/SVG/1.1/DTD/svg11.dtd">
<!-- Generated by graphviz version 2.26.3 (20100126.1600)
 -->
<!-- Title: tree Pages: 1 -->
<svg width="296pt" height="308pt"
 viewBox="0.00 0.00 296.00 308.00" xmlns="http://www.w3.org/2000/svg" xmlns:xlink="http://www.w3.org/1999/xlink">
<g id="graph1" class="graph" transform="scale(1 1) rotate(0) translate(4 304)">
<title>tree</title>
<polygon fill="white" stroke="white" points="-4,5 -4,-304 293,-304 293,5 -4,5"/>
<!-- A1 -->
<g id="node2" class="node"><title>A1</title>
<ellipse fill="none" stroke="black" cx="225" cy="-205" rx="27" ry="18.3848"/>
<text text-anchor="middle" x="225" y="-201.4" font-family="Times Roman,serif" font-size="14.00">A1</text>
</g>
<!-- A2 -->
<g id="node6" class="node"><title>A2</title>
<ellipse fill="none" stroke="black" cx="225" cy="-95" rx="27" ry="18.3848"/>
<text text-anchor="middle" x="225" y="-91.4" font-family="Times Roman,serif" font-size="14.00">A2</text>
</g>
<!-- A1&#45;&gt;A2 -->
<g id="edge6" class="edge"><title>A1&#45;&gt;A2</title>
<path fill="none" stroke="black" d="M225,-186.34C225,-169.194 225,-143.519 225,-123.753"/>
<polygon fill="black" stroke="black" points="228.5,-123.752 225,-113.752 221.5,-123.752 228.5,-123.752"/>
</g>
<!-- B1 -->
<g id="node3" class="node"><title>B1</title>
<ellipse fill="none" stroke="black" cx="27" cy="-205" rx="27" ry="18.3848"/>
<text text-anchor="middle" x="27" y="-201.4" font-family="Times Roman,serif" font-size="14.00">B1</text>
</g>
<!-- B2 -->
<g id="node7" class="node"><title>B2</title>
<ellipse fill="none" stroke="black" cx="102" cy="-95" rx="27" ry="18.3848"/>
<text text-anchor="middle" x="102" y="-91.4" font-family="Times Roman,serif" font-size="14.00">B2</text>
</g>
<!-- B1&#45;&gt;B2 -->
<g id="edge10" class="edge"><title>B1&#45;&gt;B2</title>
<path fill="none" stroke="black" d="M38.7188,-187.812C51.0475,-169.73 70.582,-141.08 84.6875,-120.392"/>
<polygon fill="black" stroke="black" points="87.6219,-122.301 90.3635,-112.067 81.8383,-118.357 87.6219,-122.301"/>
</g>
<!-- C2 -->
<g id="node8" class="node"><title>C2</title>
<ellipse fill="none" stroke="black" cx="27" cy="-95" rx="27" ry="18.3848"/>
<text text-anchor="middle" x="27" y="-91.4" font-family="Times Roman,serif" font-size="14.00">C2</text>
</g>
<!-- B1&#45;&gt;C2 -->
<g id="edge14" class="edge"><title>B1&#45;&gt;C2</title>
<path fill="none" stroke="black" d="M27,-186.34C27,-169.194 27,-143.519 27,-123.753"/>
<polygon fill="black" stroke="black" points="30.5001,-123.752 27,-113.752 23.5001,-123.752 30.5001,-123.752"/>
</g>
<!-- Meta -->
<g id="node4" class="node"><title>Meta</title>
<ellipse fill="none" stroke="black" cx="108" cy="-205" rx="36.0624" ry="18.3848"/>
<text text-anchor="middle" x="108" y="-201.4" font-family="Times Roman,serif" font-size="14.00">Meta</text>
</g>
<!-- Meta&#45;&gt;A1 -->
<g id="edge21" class="edge"><title>Meta&#45;&gt;A1</title>
<path fill="none" stroke="black" stroke-dasharray="5,2" d="M144.059,-205C157.863,-205 173.632,-205 187.562,-205"/>
<polygon fill="black" stroke="black" points="187.794,-208.5 197.794,-205 187.794,-201.5 187.794,-208.5"/>
<text text-anchor="middle" x="171" y="-228.4" font-family="Times Roman,serif" font-size="14.00">warp</text>
<text text-anchor="middle" x="171" y="-210.4" font-family="Times Roman,serif" font-size="14.00">node</text>
</g>
<!-- Meta&#45;&gt;B2 -->
<g id="edge23" class="edge"><title>Meta&#45;&gt;B2</title>
<path fill="none" stroke="black" stroke-dasharray="5,2" d="M106.982,-186.34C106.047,-169.194 104.646,-143.519 103.568,-123.753"/>
<polygon fill="black" stroke="black" points="107.062,-123.546 103.023,-113.752 100.073,-123.927 107.062,-123.546"/>
<text text-anchor="middle" x="130.5" y="-155.4" font-family="Times Roman,serif" font-size="14.00">warp</text>
<text text-anchor="middle" x="130.5" y="-137.4" font-family="Times Roman,serif" font-size="14.00">default</text>
</g>
<!-- A3 -->
<g id="node10" class="node"><title>A3</title>
<ellipse fill="none" stroke="black" cx="261" cy="-19" rx="27" ry="18.3848"/>
<text text-anchor="middle" x="261" y="-15.4" font-family="Times Roman,serif" font-size="14.00">A3</text>
</g>
<!-- A2&#45;&gt;A3 -->
<g id="edge7" class="edge"><title>A2&#45;&gt;A3</title>
<path fill="none" stroke="black" d="M233.35,-77.373C237.771,-68.0399 243.294,-56.3787 248.24,-45.9381"/>
<polygon fill="black" stroke="black" points="251.453,-47.3303 252.571,-36.7946 245.127,-44.3337 251.453,-47.3303"/>
</g>
<!-- D3 -->
<g id="node12" class="node"><title>D3</title>
<ellipse fill="none" stroke="black" cx="189" cy="-19" rx="27" ry="18.3848"/>
<text text-anchor="middle" x="189" y="-15.4" font-family="Times Roman,serif" font-size="14.00">D3</text>
</g>
<!-- A2&#45;&gt;D3 -->
<g id="edge17" class="edge"><title>A2&#45;&gt;D3</title>
<path fill="none" stroke="black" d="M216.65,-77.373C212.229,-68.0399 206.706,-56.3787 201.76,-45.9381"/>
<polygon fill="black" stroke="black" points="204.873,-44.3337 197.429,-36.7946 198.547,-47.3303 204.873,-44.3337"/>
</g>
<!-- C3 -->
<g id="node11" class="node"><title>C3</title>
<ellipse fill="none" stroke="black" cx="27" cy="-19" rx="27" ry="18.3848"/>
<text text-anchor="middle" x="27" y="-15.4" font-family="Times Roman,serif" font-size="14.00">C3</text>
</g>
<!-- C2&#45;&gt;C3 -->
<g id="edge15" class="edge"><title>C2&#45;&gt;C3</title>
<path fill="none" stroke="black" d="M27,-76.2135C27,-67.6543 27,-57.3303 27,-47.8218"/>
<polygon fill="black" stroke="black" points="30.5001,-47.5704 27,-37.5704 23.5001,-47.5705 30.5001,-47.5704"/>
</g>
<!-- C3&#45;&gt;D3 -->
<g id="edge19" class="edge"><title>C3&#45;&gt;D3</title>
<path fill="none" stroke="black" stroke-dasharray="5,2" d="M54.1152,-19C80.8655,-19 121.966,-19 151.768,-19"/>
<polygon fill="black" stroke="black" points="151.796,-22.5001 161.796,-19 151.796,-15.5001 151.796,-22.5001"/>
<text text-anchor="middle" x="108" y="-24.4" font-family="Times Roman,serif" font-size="14.00">migrate</text>
</g>
<!-- Root -->
<g id="node13" class="node"><title>Root</title>
<ellipse fill="none" stroke="black" cx="108" cy="-281" rx="33.9411" ry="18.3848"/>
<text text-anchor="middle" x="108" y="-277.4" font-family="Times Roman,serif" font-size="14.00">Root</text>
</g>
<!-- Root&#45;&gt;A1 -->
<g id="edge5" class="edge"><title>Root&#45;&gt;A1</title>
<path fill="none" stroke="black" d="M130.007,-266.705C148.805,-254.494 175.973,-236.847 196.444,-223.549"/>
<polygon fill="black" stroke="black" points="198.563,-226.346 205.043,-217.964 194.75,-220.476 198.563,-226.346"/>
</g>
<!-- Root&#45;&gt;B1 -->
<g id="edge9" class="edge"><title>Root&#45;&gt;B1</title>
<path fill="none" stroke="black" d="M90.822,-264.882C79.1309,-253.913 63.5067,-239.253 50.6437,-227.184"/>
<polygon fill="black" stroke="black" points="52.7388,-224.351 43.0514,-220.061 47.9491,-229.455 52.7388,-224.351"/>
</g>
<!-- Root&#45;&gt;Meta -->
<g id="edge12" class="edge"><title>Root&#45;&gt;Meta</title>
<path fill="none" stroke="black" d="M108,-262.213C108,-253.654 108,-243.33 108,-233.822"/>
<polygon fill="black" stroke="black" points="111.5,-233.57 108,-223.57 104.5,-233.57 111.5,-233.57"/>
</g>
</g>
</svg>
